solid banksy-frame
facet normal 0.0 0.0 1.0
  outer loop
    vertex 1278.520174024027 159.69677847713385 3.0
    vertex 1240.5201740240273 247.69677847713376 3.0
    vertex 1190.5201740240273 247.69677847713376 3.0
  endloop
endfacet
facet normal 0.0 0.0 1.0
  outer loop
    vertex 1240.5201740240273 247.69677847713376 3.0
    vertex 1278.520174024027 159.69677847713385 3.0
    vertex 1278.520174024027 209.69677847713382 3.0
  endloop
endfacet
facet normal 0.0 1.0 0.0
  outer loop
    vertex 1184.5201740240273 253.69677847713376 7.0
    vertex 1234.5201740240273 253.69677847713376 0.0
    vertex 1184.5201740240273 253.69677847713376 0.0
  endloop
endfacet
facet normal 0.0 1.0 0.0
  outer loop
    vertex 1234.5201740240273 253.69677847713376 0.0
    vertex 1184.5201740240273 253.69677847713376 7.0
    vertex 1209.5201740240273 253.69677847713376 7.0
  endloop
endfacet
facet normal 0.0 1.0 0.0
  outer loop
    vertex 1234.5201740240273 253.69677847713376 0.0
    vertex 1209.5201740240273 253.69677847713376 7.0
    vertex 1234.5201740240273 253.69677847713376 23.0
  endloop
endfacet
facet normal 0.0 1.0 0.0
  outer loop
    vertex 1234.5201740240273 253.69677847713376 23.0
    vertex 1209.5201740240273 253.69677847713376 7.0
    vertex 1209.5201740240273 253.69677847713376 23.0
  endloop
endfacet
facet normal 1.0 0.0 0.0
  outer loop
    vertex 1284.5201740240273 203.69677847713376 0.0
    vertex 1284.5201740240273 153.69677847713376 23.0
    vertex 1284.5201740240273 153.69677847713376 0.0
  endloop
endfacet
facet normal 1.0 0.0 0.0
  outer loop
    vertex 1284.5201740240273 153.69677847713376 23.0
    vertex 1284.5201740240273 203.69677847713376 0.0
    vertex 1284.5201740240273 203.69677847713376 23.0
  endloop
endfacet
facet normal 0.7071067811865476 0.7071067811865476 0.0
  outer loop
    vertex 1284.5201740240273 203.69677847713376 0.0
    vertex 1282.520174024027 205.69677847713385 3.0
    vertex 1284.5201740240273 203.69677847713376 23.0
  endloop
endfacet
facet normal 0.7071067811865476 0.7071067811865476 0.0
  outer loop
    vertex 1282.520174024027 205.69677847713385 3.0
    vertex 1284.5201740240273 203.69677847713376 0.0
    vertex 1234.5201740240273 253.69677847713376 0.0
  endloop
endfacet
facet normal 0.7071067811865476 0.7071067811865476 0.0
  outer loop
    vertex 1282.520174024027 205.69677847713385 3.0
    vertex 1234.5201740240273 253.69677847713376 0.0
    vertex 1280.520174024027 207.69677847713385 3.0
  endloop
endfacet
facet normal 0.7071067811865476 0.7071067811865476 0.0
  outer loop
    vertex 1280.520174024027 207.69677847713385 3.0
    vertex 1234.5201740240273 253.69677847713376 0.0
    vertex 1278.520174024027 209.69677847713382 3.0
  endloop
endfacet
facet normal 0.7071067811865476 0.7071067811865476 0.0
  outer loop
    vertex 1280.520174024027 207.69677847713385 3.0
    vertex 1278.520174024027 209.69677847713382 3.0
    vertex 1280.520174024027 207.69677847713385 23.0
  endloop
endfacet
facet normal 0.7071067811865476 0.7071067811865476 0.0
  outer loop
    vertex 1278.520174024027 209.69677847713382 3.0
    vertex 1234.5201740240273 253.69677847713376 0.0
    vertex 1240.5201740240273 247.69677847713376 3.0
  endloop
endfacet
facet normal 0.7071067811865476 0.7071067811865476 0.0
  outer loop
    vertex 1240.5201740240273 247.69677847713376 3.0
    vertex 1234.5201740240273 253.69677847713376 0.0
    vertex 1238.5201740240273 249.69677847713376 3.0
  endloop
endfacet
facet normal 0.7071067811865476 0.7071067811865476 0.0
  outer loop
    vertex 1240.5201740240273 247.69677847713376 3.0
    vertex 1238.5201740240273 249.69677847713376 3.0
    vertex 1240.5201740240273 247.69677847713376 23.0
  endloop
endfacet
facet normal 0.7071067811865476 0.7071067811865476 0.0
  outer loop
    vertex 1238.5201740240273 249.69677847713376 3.0
    vertex 1234.5201740240273 253.69677847713376 0.0
    vertex 1236.520174024027 251.69677847713376 3.0
  endloop
endfacet
facet normal 0.7071067811865476 0.7071067811865476 0.0
  outer loop
    vertex 1236.520174024027 251.69677847713376 3.0
    vertex 1234.5201740240273 253.69677847713376 0.0
    vertex 1236.520174024027 251.69677847713376 23.0
  endloop
endfacet
facet normal 0.7071067811865476 0.7071067811865476 0.0
  outer loop
    vertex 1236.520174024027 251.69677847713376 23.0
    vertex 1234.5201740240273 253.69677847713376 0.0
    vertex 1234.5201740240273 253.69677847713376 23.0
  endloop
endfacet
facet normal 0.7071067811865476 0.7071067811865476 0.0
  outer loop
    vertex 1238.5201740240273 249.69677847713376 23.0
    vertex 1240.5201740240273 247.69677847713376 23.0
    vertex 1238.5201740240273 249.69677847713376 3.0
  endloop
endfacet
facet normal 0.7071067811865476 0.7071067811865476 0.0
  outer loop
    vertex 1278.520174024027 209.69677847713382 23.0
    vertex 1280.520174024027 207.69677847713385 23.0
    vertex 1278.520174024027 209.69677847713382 3.0
  endloop
endfacet
facet normal 0.7071067811865476 0.7071067811865476 0.0
  outer loop
    vertex 1282.520174024027 205.69677847713385 23.0
    vertex 1284.5201740240273 203.69677847713376 23.0
    vertex 1282.520174024027 205.69677847713385 3.0
  endloop
endfacet
facet normal 0.0 0.0 -1.0
  outer loop
    vertex 1234.5201740240273 253.69677847713376 0.0
    vertex 1284.5201740240273 153.69677847713376 0.0
    vertex 1184.5201740240273 253.69677847713376 0.0
  endloop
endfacet
facet normal 0.0 0.0 -1.0
  outer loop
    vertex 1284.5201740240273 153.69677847713376 0.0
    vertex 1234.5201740240273 253.69677847713376 0.0
    vertex 1284.5201740240273 203.69677847713376 0.0
  endloop
endfacet
facet normal -0.7071067811865476 -0.7071067811865475 6.883988623645976e-16
  outer loop
    vertex 1278.520174024027 159.69677847713385 23.0
    vertex 1280.520174024027 157.69677847713385 3.0
    vertex 1280.520174024027 157.69677847713385 23.0
  endloop
endfacet
facet normal -0.7071067811865476 -0.7071067811865475 6.883988623645976e-16
  outer loop
    vertex 1188.5201740240273 249.69677847713376 23.0
    vertex 1190.5201740240273 247.69677847713376 3.0
    vertex 1190.5201740240273 247.69677847713376 23.0
  endloop
endfacet
facet normal -0.7071067811865476 -0.7071067811865475 6.883988623645976e-16
  outer loop
    vertex 1184.5201740240273 253.69677847713376 7.0
    vertex 1186.520174024027 251.69677847713376 3.0
    vertex 1186.520174024027 251.69677847713376 7.0
  endloop
endfacet
facet normal -0.7071067811865476 -0.7071067811865475 6.883988623645976e-16
  outer loop
    vertex 1282.520174024027 155.69677847713388 23.0
    vertex 1284.5201740240273 153.69677847713376 0.0
    vertex 1284.5201740240273 153.69677847713376 23.0
  endloop
endfacet
facet normal -0.7071067811865476 -0.7071067811865475 6.883988623645976e-16
  outer loop
    vertex 1284.5201740240273 153.69677847713376 0.0
    vertex 1282.520174024027 155.69677847713388 23.0
    vertex 1282.520174024027 155.69677847713388 3.0
  endloop
endfacet
facet normal -0.7071067811865476 -0.7071067811865475 6.883988623645976e-16
  outer loop
    vertex 1284.5201740240273 153.69677847713376 0.0
    vertex 1282.520174024027 155.69677847713388 3.0
    vertex 1184.5201740240273 253.69677847713376 0.0
  endloop
endfacet
facet normal -0.7071067811865476 -0.7071067811865475 6.883988623645976e-16
  outer loop
    vertex 1184.5201740240273 253.69677847713376 0.0
    vertex 1282.520174024027 155.69677847713388 3.0
    vertex 1280.520174024027 157.69677847713385 3.0
  endloop
endfacet
facet normal -0.7071067811865476 -0.7071067811865475 6.883988623645976e-16
  outer loop
    vertex 1184.5201740240273 253.69677847713376 0.0
    vertex 1280.520174024027 157.69677847713385 3.0
    vertex 1278.520174024027 159.69677847713385 3.0
  endloop
endfacet
facet normal -0.7071067811865476 -0.7071067811865475 6.883988623645976e-16
  outer loop
    vertex 1278.520174024027 159.69677847713385 3.0
    vertex 1280.520174024027 157.69677847713385 3.0
    vertex 1278.520174024027 159.69677847713385 23.0
  endloop
endfacet
facet normal -0.7071067811865476 -0.7071067811865475 6.883988623645976e-16
  outer loop
    vertex 1184.5201740240273 253.69677847713376 0.0
    vertex 1278.520174024027 159.69677847713385 3.0
    vertex 1190.5201740240273 247.69677847713376 3.0
  endloop
endfacet
facet normal -0.7071067811865476 -0.7071067811865475 6.883988623645976e-16
  outer loop
    vertex 1184.5201740240273 253.69677847713376 0.0
    vertex 1190.5201740240273 247.69677847713376 3.0
    vertex 1188.5201740240273 249.69677847713376 3.0
  endloop
endfacet
facet normal -0.7071067811865476 -0.7071067811865475 6.883988623645976e-16
  outer loop
    vertex 1188.5201740240273 249.69677847713376 3.0
    vertex 1190.5201740240273 247.69677847713376 3.0
    vertex 1188.5201740240273 249.69677847713376 23.0
  endloop
endfacet
facet normal -0.7071067811865476 -0.7071067811865475 6.883988623645976e-16
  outer loop
    vertex 1184.5201740240273 253.69677847713376 0.0
    vertex 1188.5201740240273 249.69677847713376 3.0
    vertex 1186.520174024027 251.69677847713376 3.0
  endloop
endfacet
facet normal -0.7071067811865476 -0.7071067811865475 6.883988623645976e-16
  outer loop
    vertex 1184.5201740240273 253.69677847713376 0.0
    vertex 1186.520174024027 251.69677847713376 3.0
    vertex 1184.5201740240273 253.69677847713376 7.0
  endloop
endfacet
facet normal 0.0 1.0 0.0
  outer loop
    vertex 1188.5201740240273 249.69677847713376 23.0
    vertex 1238.5201740240273 249.69677847713376 3.0
    vertex 1188.5201740240273 249.69677847713376 3.0
  endloop
endfacet
facet normal 0.0 1.0 0.0
  outer loop
    vertex 1238.5201740240273 249.69677847713376 3.0
    vertex 1188.5201740240273 249.69677847713376 23.0
    vertex 1238.5201740240273 249.69677847713376 23.0
  endloop
endfacet
facet normal 0.0 -1.0 0.0
  outer loop
    vertex 1240.5201740240273 247.69677847713376 23.0
    vertex 1190.5201740240273 247.69677847713376 3.0
    vertex 1240.5201740240273 247.69677847713376 3.0
  endloop
endfacet
facet normal 0.0 -1.0 0.0
  outer loop
    vertex 1190.5201740240273 247.69677847713376 3.0
    vertex 1240.5201740240273 247.69677847713376 23.0
    vertex 1190.5201740240273 247.69677847713376 23.0
  endloop
endfacet
facet normal 0.0 0.0 1.0
  outer loop
    vertex 1190.5201740240273 247.69677847713376 23.0
    vertex 1238.5201740240273 249.69677847713376 23.0
    vertex 1188.5201740240273 249.69677847713376 23.0
  endloop
endfacet
facet normal 0.0 0.0 1.0
  outer loop
    vertex 1238.5201740240273 249.69677847713376 23.0
    vertex 1190.5201740240273 247.69677847713376 23.0
    vertex 1240.5201740240273 247.69677847713376 23.0
  endloop
endfacet
facet normal 0.0 0.0 1.0
  outer loop
    vertex 1188.5201740240273 249.69677847713376 3.0
    vertex 1211.5201740240273 251.69677847713376 3.0
    vertex 1186.520174024027 251.69677847713376 3.0
  endloop
endfacet
facet normal 0.0 0.0 1.0
  outer loop
    vertex 1211.5201740240273 251.69677847713376 3.0
    vertex 1188.5201740240273 249.69677847713376 3.0
    vertex 1238.5201740240273 249.69677847713376 3.0
  endloop
endfacet
facet normal 0.0 0.0 1.0
  outer loop
    vertex 1211.5201740240273 251.69677847713376 3.0
    vertex 1238.5201740240273 249.69677847713376 3.0
    vertex 1236.520174024027 251.69677847713376 3.0
  endloop
endfacet
facet normal 0.0 -1.0 0.0
  outer loop
    vertex 1236.520174024027 251.69677847713376 23.0
    vertex 1211.5201740240273 251.69677847713376 3.0
    vertex 1236.520174024027 251.69677847713376 3.0
  endloop
endfacet
facet normal 0.0 -1.0 0.0
  outer loop
    vertex 1211.5201740240273 251.69677847713376 3.0
    vertex 1236.520174024027 251.69677847713376 23.0
    vertex 1211.5201740240273 251.69677847713376 7.0
  endloop
endfacet
facet normal 0.0 -1.0 0.0
  outer loop
    vertex 1211.5201740240273 251.69677847713376 7.0
    vertex 1236.520174024027 251.69677847713376 23.0
    vertex 1211.5201740240273 251.69677847713376 23.0
  endloop
endfacet
facet normal -1.0 0.0 0.0
  outer loop
    vertex 1282.520174024027 205.69677847713385 23.0
    vertex 1282.520174024027 155.69677847713388 3.0
    vertex 1282.520174024027 155.69677847713388 23.0
  endloop
endfacet
facet normal -1.0 0.0 0.0
  outer loop
    vertex 1282.520174024027 155.69677847713388 3.0
    vertex 1282.520174024027 205.69677847713385 23.0
    vertex 1282.520174024027 205.69677847713385 3.0
  endloop
endfacet
facet normal 1.0 0.0 0.0
  outer loop
    vertex 1280.520174024027 207.69677847713385 3.0
    vertex 1280.520174024027 157.69677847713385 23.0
    vertex 1280.520174024027 157.69677847713385 3.0
  endloop
endfacet
facet normal 1.0 0.0 0.0
  outer loop
    vertex 1280.520174024027 157.69677847713385 23.0
    vertex 1280.520174024027 207.69677847713385 3.0
    vertex 1280.520174024027 207.69677847713385 23.0
  endloop
endfacet
facet normal 0.0 0.0 1.0
  outer loop
    vertex 1282.520174024027 155.69677847713388 3.0
    vertex 1280.520174024027 207.69677847713385 3.0
    vertex 1280.520174024027 157.69677847713385 3.0
  endloop
endfacet
facet normal 0.0 0.0 1.0
  outer loop
    vertex 1280.520174024027 207.69677847713385 3.0
    vertex 1282.520174024027 155.69677847713388 3.0
    vertex 1282.520174024027 205.69677847713385 3.0
  endloop
endfacet
facet normal -1.0 0.0 0.0
  outer loop
    vertex 1278.520174024027 209.69677847713382 23.0
    vertex 1278.520174024027 159.69677847713385 3.0
    vertex 1278.520174024027 159.69677847713385 23.0
  endloop
endfacet
facet normal -1.0 0.0 0.0
  outer loop
    vertex 1278.520174024027 159.69677847713385 3.0
    vertex 1278.520174024027 209.69677847713382 23.0
    vertex 1278.520174024027 209.69677847713382 3.0
  endloop
endfacet
facet normal 0.0 0.0 1.0
  outer loop
    vertex 1211.5201740240273 251.69677847713376 23.0
    vertex 1234.5201740240273 253.69677847713376 23.0
    vertex 1209.5201740240273 253.69677847713376 23.0
  endloop
endfacet
facet normal 0.0 0.0 1.0
  outer loop
    vertex 1234.5201740240273 253.69677847713376 23.0
    vertex 1211.5201740240273 251.69677847713376 23.0
    vertex 1236.520174024027 251.69677847713376 23.0
  endloop
endfacet
facet normal 0.0 0.0 1.0
  outer loop
    vertex 1284.5201740240273 153.69677847713376 23.0
    vertex 1282.520174024027 205.69677847713385 23.0
    vertex 1282.520174024027 155.69677847713388 23.0
  endloop
endfacet
facet normal 0.0 0.0 1.0
  outer loop
    vertex 1282.520174024027 205.69677847713385 23.0
    vertex 1284.5201740240273 153.69677847713376 23.0
    vertex 1284.5201740240273 203.69677847713376 23.0
  endloop
endfacet
facet normal 0.0 0.0 1.0
  outer loop
    vertex 1280.520174024027 157.69677847713385 23.0
    vertex 1278.520174024027 209.69677847713382 23.0
    vertex 1278.520174024027 159.69677847713385 23.0
  endloop
endfacet
facet normal 0.0 0.0 1.0
  outer loop
    vertex 1278.520174024027 209.69677847713382 23.0
    vertex 1280.520174024027 157.69677847713385 23.0
    vertex 1280.520174024027 207.69677847713385 23.0
  endloop
endfacet
facet normal -0.7071067811865634 -0.7071067811865317 -1.799379935086959e-30
  outer loop
    vertex 1209.5201740240273 253.69677847713376 23.0
    vertex 1211.5201740240273 251.69677847713376 7.0
    vertex 1211.5201740240273 251.69677847713376 23.0
  endloop
endfacet
facet normal -0.7071067811865634 -0.7071067811865317 -1.799379935086959e-30
  outer loop
    vertex 1211.5201740240273 251.69677847713376 7.0
    vertex 1209.5201740240273 253.69677847713376 23.0
    vertex 1209.5201740240273 253.69677847713376 7.0
  endloop
endfacet
facet normal 0.0 0.0 1.0
  outer loop
    vertex 1186.520174024027 251.69677847713376 7.0
    vertex 1209.5201740240273 253.69677847713376 7.0
    vertex 1184.5201740240273 253.69677847713376 7.0
  endloop
endfacet
facet normal 0.0 0.0 1.0
  outer loop
    vertex 1209.5201740240273 253.69677847713376 7.0
    vertex 1186.520174024027 251.69677847713376 7.0
    vertex 1211.5201740240273 251.69677847713376 7.0
  endloop
endfacet
facet normal 0.0 -1.0 0.0
  outer loop
    vertex 1211.5201740240273 251.69677847713376 7.0
    vertex 1186.520174024027 251.69677847713376 3.0
    vertex 1211.5201740240273 251.69677847713376 3.0
  endloop
endfacet
facet normal 0.0 -1.0 0.0
  outer loop
    vertex 1186.520174024027 251.69677847713376 3.0
    vertex 1211.5201740240273 251.69677847713376 7.0
    vertex 1186.520174024027 251.69677847713376 7.0
  endloop
endfacet
endsolid banksy-frame
